<?xml version="1.0" encoding="utf-8"?>
<!-- Generator: Adobe Illustrator 19.0.0, SVG Export Plug-In . SVG Version: 6.00 Build 0)  -->
<svg version="1.1" id="layer" xmlns="http://www.w3.org/2000/svg" xmlns:xlink="http://www.w3.org/1999/xlink" x="0px" y="0px"
	 viewBox="-153 -46 652 652" style="enable-background:new -153 -46 652 652;" xml:space="preserve">
<style type="text/css">
	.st0{fill:#E42313;}
</style>
<path class="st0" d="M373.2,255h-24.5v78.2h24.5V255z M24.7,333.4c1.1,0,2.3,0,3.4,0v-16.8c-0.8,0-1.5,0-2.2,0
	c-3.9,0-7.7,0.1-11.6-0.1c-4.8-0.2-7.1-2.7-7.1-7.5c0-11.7,0-23.5,0-35.2c0-0.6,0.1-1.3,0.1-2.1c2.9,0,5.8,0.1,8.6,0
	c3.6-0.1,7.1-0.8,9.3-4c2.7-3.8,3-8.2,2.9-12.8h-21v-11.7h-24v2.2c0,21.5,0,43.1,0,64.6c0,2.3,0.2,4.8,0.8,7
	c2.2,8.9,8.7,13.3,17.1,15.2C8.9,334.1,16.8,333.3,24.7,333.4z M64.5,331.1c-0.1-34.3-0.1-68.6-0.1-103v-2.1H39.8v107.3
	c0.7,0,1.3,0,1.9,0c6.8,0,13.7-0.1,20.5,0C64.1,333.4,64.5,332.9,64.5,331.1z M279.1,331.9c-0.1-16.8,0.2-33.7-0.3-50.6
	c-0.3-10.5-5.5-18.5-15.4-22.9c-5.9-2.6-12-3.7-18.4-3.8c-9-0.2-18-0.4-27,1.2c-3.1,0.5-6,1.4-9.1,2.1c-0.1-1-0.1-1.8-0.2-2.9
	c-5.9,0.1-11.7-0.1-17.2,2c-4.4,1.6-5.9,3.9-5.9,8.6c0,21.8,0,43.6,0,65.4v2.3h24.7v-2.3c0-16.3,0.2-32.6-0.1-48.9
	c-0.1-4.1,1.5-5.8,4.9-7.2c8.3-3.5,17-4,25.8-3.1c8.8,0.9,13.6,4.5,13.3,15.4c-0.3,14.7-0.1,29.5-0.1,44.3c0,1.7,0.5,2.1,2.2,2.1
	c5.9-0.1,11.7,0,17.6,0h4.8C278.9,332.7,279.1,332.3,279.1,331.9z M333.8,268.3c3.2-3.9,3.2-8.6,3.5-13.4h-21.1v-11.7h-23.9
	c0,0.5-0.1,0.8-0.1,1.1c0,22.5,0,45,0,67.5c0,3.4,0.8,6.7,2.5,9.8c3.8,6.9,10.1,10.1,17.4,10.9c7,0.8,14,0.6,21,0.9
	c1.4,0,2.8,0,4.1,0v-16.8c-0.8,0-1.5,0-2.2,0c-3.9,0-7.8,0.1-11.6-0.1c-4.9-0.2-7.2-2.7-7.2-7.4c0-11.7,0-23.5,0-35.2v-2.1
	c3,0,5.9,0.1,8.7,0C328.2,271.7,331.5,271,333.8,268.3z M373,231.3c-5.3-6.8-18.5-6.9-23.8-0.2c-2.5,3.1-2.5,7,0,10.1
	c3.1,3.7,7.2,4.9,11.8,5c4,0,7.7-1.2,10.4-3.5C375.1,239.7,375.8,234.8,373,231.3z M414.9,308.9c-4.8-5-5.9-11.2-5.6-17.8
	c0.3-5.3,2.1-9.9,6.4-13c2.8-2,6.1-3.7,9.4-4.7c10.3-3.1,20.9-2.7,31.4-1.8c3.2,0.3,6.5,0.7,9.8,1.1v-16.6c-1.8-0.2-3.5-0.5-5.2-0.7
	c-10.4-1-20.7-1.3-31.1-0.4c-8,0.6-15.8,2-23.3,5c-8.7,3.5-15.7,9-19.6,17.8c-2.7,6.3-3.1,12.9-2.7,19.6c0.4,5.9,2,11.5,5.1,16.5
	c4.9,8,12.3,12.9,21,15.7c16.1,5.3,32.5,5.6,49,2.9c10-1.6,14.4-8.3,12.7-17.7c-5,0.7-9.9,1.4-14.9,1.9c-9.2,1-18.5,1.2-27.7-0.5
	C424.3,315,419,313.1,414.9,308.9z M172.7,323.3c0,3.7-1.6,6.1-4.9,7.8c-3.3,1.7-14.5,2.7-18.1,2c-0.1-0.9-0.1-1.7-0.2-2.5
	c-3.7,0.9-7.2,2.1-10.9,2.6c-16,2-31.4,0.3-45.6-7.8c-11.3-6.4-16.8-16.6-17.4-29.4c-0.4-9.1,1-17.7,6.9-25
	c5.1-6.5,12.1-10.2,19.9-12.6c9.1-2.8,18.5-3.8,28-4c9.2-0.2,18.3,0.6,27.1,3.3c2.8,0.8,5.5,2.1,8,3.7c4.8,3,7.2,7.5,7.2,13.2
	C172.6,290.8,172.6,307,172.7,323.3z M147.9,310.9c-0.1-5.8,0-11.5,0-17.3s-0.1-11.5,0-17.3c0-1.8-0.6-2.8-2.2-3.4
	c-0.7-0.3-1.3-0.5-2-0.7c-8.4-1.7-16.8-1.6-25.1,0.3c-5,1.1-9.7,3.1-13.3,6.9c-4.4,4.7-5.4,10.4-4.8,16.6c0.8,8,4.4,14.1,11.9,17.3
	c4.2,1.7,8.7,2.8,13.2,3.4c7.1,1,14.1,0.2,20.7-3.1C147.4,313,147.9,312.3,147.9,310.9z M-29.9,323.4c0,3.8-1.7,6.2-5,7.6
	c-3.8,1.6-7.8,2-11.9,2.1c-2,0.1-4,0-6.2,0c-0.1-1-0.1-1.8-0.2-2.6c-3.6,0.9-7.2,2.2-10.8,2.6c-17.3,2-33.9,0.1-48.6-9.9
	c-8.5-5.7-13-14.1-14-24.3c-0.6-6.1-0.5-12,1.3-17.9c3-9.9,9.9-16.2,19.1-20.4c7.5-3.4,15.5-5.1,23.7-5.7c6.3-0.5,12.7-0.7,19.1-0.4
	c7.7,0.3,15.4,1.4,22.6,4.6c5.5,2.5,9.8,6.1,10.8,12.5c0.1,0.8,0.2,1.6,0.2,2.5C-29.9,290.6-30,307-29.9,323.4z M-54.6,310.9
	c-0.1-5.7,0-11.4,0-17.1v-16.1c0-3.7-0.6-4.6-4.3-5.4c-9.8-2-19.6-1.8-29.1,1.4c-10,3.4-14.5,10.1-14.3,20.6
	c0.2,9.5,5.2,16.6,14.1,20c5.7,2.1,11.6,2.9,17.6,2.7c5-0.1,9.8-1.2,14.3-3.4C-55,312.9-54.6,312.2-54.6,310.9z"/>
</svg>
